<svg width="50" height="50" viewBox="0 0 50 50" fill="none" xmlns="http://www.w3.org/2000/svg">
<g clip-path="url(#clip0_118_17)">
<path d="M20.9912 13.1816H46.7768C48.5569 13.1816 50 11.7385 50 9.9584C50 8.17833 48.5569 6.7352 46.7768 6.7352H20.9912C19.2111 6.7352 17.768 8.17833 17.768 9.9584C17.768 11.7385 19.2109 13.1816 20.9912 13.1816Z" fill="white"/>
<path d="M46.7768 21.7768H20.9912C19.2111 21.7768 17.768 23.2199 17.768 25C17.768 26.7801 19.2111 28.2232 20.9912 28.2232H46.7768C48.5569 28.2232 50 26.7801 50 25C50 23.2199 48.5569 21.7768 46.7768 21.7768Z" fill="white"/>
<path d="M46.7768 36.8184H20.9912C19.2111 36.8184 17.768 38.2615 17.768 40.0416C17.768 41.8217 19.2111 43.2648 20.9912 43.2648H46.7768C48.5569 43.2648 50 41.8217 50 40.0416C50 38.2615 48.5569 36.8184 46.7768 36.8184Z" fill="white"/>
<path d="M10.4829 22.4352L8.33649 22.1232L7.37662 20.1781C7.10501 19.628 6.54503 19.2797 5.93134 19.2797C5.31807 19.2797 4.75766 19.628 4.48605 20.1781L3.52597 22.1232L1.37975 22.4352C0.772712 22.5233 0.268174 22.9485 0.0786498 23.5319C-0.110874 24.1153 0.0472773 24.7557 0.486277 25.1839L2.03943 26.6978L1.67263 28.8356C1.56884 29.4403 1.81746 30.0514 2.31362 30.412C2.59447 30.6161 2.92667 30.7199 3.26102 30.7199C3.51737 30.7199 3.77502 30.6586 4.01074 30.5349L5.93091 29.5254L7.85107 30.5349C8.08701 30.6588 8.34444 30.7199 8.60079 30.7199C8.60229 30.7199 8.60401 30.7199 8.6053 30.7199C9.49534 30.7197 10.2167 29.9983 10.2167 29.1083C10.2167 28.9731 10.2001 28.8416 10.1688 28.7161L9.82238 26.6978L11.3755 25.1839C11.815 24.7557 11.9729 24.1153 11.7834 23.5319C11.5945 22.9485 11.09 22.5233 10.4829 22.4352Z" fill="white"/>
<path d="M10.4829 7.39358L8.33649 7.08158L7.37662 5.13648C7.10501 4.58639 6.54503 4.23807 5.93134 4.23807C5.31807 4.23807 4.75766 4.58639 4.48605 5.13648L3.52597 7.08158L1.37975 7.39358C0.772712 7.48168 0.268174 7.90693 0.0786498 8.49033C-0.110874 9.07373 0.0472773 9.71407 0.486277 10.1423L2.03943 11.6562L1.67263 13.794C1.56884 14.3987 1.81746 15.0098 2.31362 15.3704C2.59447 15.5745 2.92667 15.6783 3.26102 15.6783C3.51737 15.6783 3.77502 15.617 4.01074 15.4933L5.93091 14.4838L7.85107 15.4933C8.08701 15.6173 8.34444 15.6783 8.60079 15.6783C8.60229 15.6783 8.60401 15.6783 8.6053 15.6783C9.49534 15.6783 10.2167 14.9567 10.2167 14.0667C10.2167 13.9315 10.2001 13.8 10.1688 13.6745L9.82238 11.6562L11.3755 10.1423C11.815 9.71407 11.9729 9.07373 11.7834 8.49033C11.5945 7.90693 11.09 7.48168 10.4829 7.39358Z" fill="white"/>
<path d="M10.4829 37.4768L8.33649 37.1648L7.37662 35.2197C7.10501 34.6696 6.54503 34.3213 5.93134 34.3213C5.31807 34.3213 4.75766 34.6696 4.48605 35.2197L3.52597 37.1648L1.37975 37.4768C0.772712 37.5649 0.268174 37.9901 0.0786498 38.5735C-0.110874 39.1569 0.0472773 39.7973 0.486277 40.2255L2.03943 41.7393L1.67263 43.8772C1.56884 44.4819 1.81746 45.093 2.31362 45.4535C2.59447 45.6577 2.92667 45.7615 3.26102 45.7615C3.51737 45.7615 3.77502 45.7002 4.01074 45.5765L5.93091 44.567L7.85107 45.5765C8.08701 45.7004 8.34444 45.7615 8.60079 45.7615C8.60229 45.7615 8.60401 45.7615 8.6053 45.7615C9.49534 45.7613 10.2167 45.0399 10.2167 44.1499C10.2167 44.0147 10.2001 43.8832 10.1688 43.7577L9.82238 41.7393L11.3755 40.2255C11.815 39.7973 11.9729 39.1569 11.7834 38.5735C11.5945 37.9901 11.09 37.5649 10.4829 37.4768Z" fill="white"/>
</g>
<defs>
<clipPath id="clip0_118_17">
<rect width="50" height="50" fill="white"/>
</clipPath>
</defs>
</svg>
