<svg width="50" height="50" viewBox="0 0 50 50" fill="none" xmlns="http://www.w3.org/2000/svg">
<g clip-path="url(#clip0_118_56)">
<path d="M49.0547 22.7906L27.1797 0.915625C26.5695 0.305469 25.7695 0 24.9703 0C24.1711 0 23.3711 0.305469 22.7609 0.915625L0.885946 22.7906C-0.334366 24.0141 -0.273429 25.9281 0.946884 27.1484C2.17032 28.375 3.9586 28.5555 5.18282 27.3313L6.25001 26.2633V46.875C6.25001 48.6023 7.64767 50 9.37501 50H21.875V37.5H28.125V50H40.625C42.3524 50 43.75 48.6023 43.75 46.875V26.3242L44.6836 27.2578C45.9039 28.4781 47.7688 28.3688 48.993 27.1477C50.2141 25.9281 50.2781 24.0109 49.0547 22.7906Z" fill="white"/>
</g>
<defs>
<clipPath id="clip0_118_56">
<rect width="50" height="50" fill="white"/>
</clipPath>
</defs>
</svg>
