<svg width="38" height="50" viewBox="0 0 38 50" fill="none" xmlns="http://www.w3.org/2000/svg">
<path d="M31.1512 41.3785H6.62885C5.86305 41.3785 5.23724 41.9961 5.23724 42.7701C5.23724 43.5359 5.8549 44.1617 6.62885 44.1617H31.1595C31.9253 44.1617 32.5511 43.5441 32.5511 42.7701C32.5428 41.9961 31.9253 41.3785 31.1512 41.3785Z" fill="white"/>
<path d="M31.1512 35.2849H6.62885C5.86305 35.2849 5.23724 35.9024 5.23724 36.6765C5.23724 37.4423 5.8549 38.0681 6.62885 38.0681H31.1595C31.9253 38.0681 32.5511 37.4505 32.5511 36.6765C32.5428 35.9026 31.9253 35.2849 31.1512 35.2849Z" fill="white"/>
<path d="M18.89 5.83826C15.5961 5.83826 12.9035 8.52274 12.9035 11.8248C12.9035 15.1186 15.5961 17.803 18.89 17.803C22.1839 17.803 24.8765 15.1185 24.8765 11.8165C24.8765 8.51446 22.1839 5.83826 18.89 5.83826ZM18.89 15.0116C17.136 15.0116 15.695 13.5706 15.695 11.8166C15.695 10.0626 17.1277 8.62159 18.89 8.62159C20.6523 8.62159 22.085 10.0626 22.085 11.8166C22.085 13.5705 20.644 15.0116 18.89 15.0116Z" fill="white"/>
<path d="M26.8363 20.8087C21.7556 18.8324 16.0408 18.8324 10.9602 20.8087C9.29677 21.4592 8.18514 23.1143 8.18514 24.9342V30.583C8.17686 31.3488 8.80279 31.9746 9.56859 31.9746H28.2198C28.9856 31.9746 29.6114 31.3571 29.6114 30.583V24.9342C29.6114 23.1143 28.4997 21.4592 26.8363 20.8087ZM26.8363 29.1996H10.9602V24.9423C10.9602 24.2671 11.3637 23.6413 11.9648 23.4108C16.4032 21.6897 21.3933 21.6897 25.8318 23.4108C26.4329 23.6496 26.8364 24.259 26.8364 24.9423V29.1996H26.8363Z" fill="white"/>
<path d="M33.7863 0H10.6555C9.58505 0 8.58042 0.411685 7.82291 1.16933L1.16933 7.82278C0.411813 8.58043 0 9.58493 0 10.6554V45.9815C0 48.1966 1.80342 49.9999 4.01839 49.9999H33.7945C36.0096 49.9999 37.8129 48.1965 37.8129 45.9815V4.01839C37.7883 1.80342 35.9849 0 33.7863 0ZM8.17689 4.74304V8.18504H4.73489L8.17689 4.74304ZM35.0132 14.8798H29.8419C29.0762 14.8798 28.4503 15.4974 28.4503 16.2714C28.4503 17.0372 29.0679 17.663 29.8419 17.663H35.0132V20.1333H33.1193C32.3535 20.1333 31.7276 20.7509 31.7276 21.5249C31.7276 22.2907 32.3453 22.9165 33.1193 22.9165H35.0132V45.9896C35.0132 46.6731 34.4616 47.2248 33.7863 47.2248H3.9938C3.31857 47.2248 2.7669 46.6731 2.7669 45.9979V10.9601H9.56862C10.3344 10.9601 10.9602 10.3426 10.9602 9.5685V2.76677H33.7863C34.4616 2.76677 35.0132 3.31845 35.0132 3.99368V14.8798Z" fill="white"/>
</svg>
